# Blender v2.72 (sub 0) OBJ File: 'cube.blend'
# www.blender.org
o Cube
v 1.000000 -1.000000 -1.000000
v 1.000000 -1.000000 1.000000
v -1.000000 -1.000000 1.000000
v -1.000000 -1.000000 -1.000000
v 1.000000 1.000000 -0.999999
v 0.999999 1.000000 1.000001
v -1.000000 1.000000 1.000000
v -1.000000 1.000000 -1.000000
vt 0.625000 0.250043
vt 0.625000 0.500000
vt 0.375043 0.500000
vt 0.375043 0.749957
vt 0.625000 0.749957
vt 0.625000 0.999913
vt 0.375043 0.250044
vt 0.375043 0.000087
vt 0.624999 0.000087
vt 0.874957 0.500000
vt 0.874957 0.749956
vt 0.125087 0.500000
vt 0.375044 0.999913
vt 0.125087 0.749957
vn 0.000000 -1.000000 0.000000
vn 0.000000 1.000000 0.000000
vn 1.000000 -0.000000 0.000000
vn -0.000000 -0.000000 1.000000
vn -1.000000 -0.000000 -0.000000
vn 0.000000 0.000000 -1.000000
s off
f 2/1/1 3/2/1 4/3/1
f 8/4/2 7/5/2 6/6/2
f 1/7/3 5/8/3 6/9/3
f 2/10/4 6/11/4 7/5/4
f 7/5/5 8/4/5 4/3/5
f 1/12/6 4/3/6 8/4/6
f 1/7/1 2/1/1 4/3/1
f 5/13/2 8/4/2 6/6/2
f 2/1/3 1/7/3 6/9/3
f 3/2/4 2/10/4 7/5/4
f 3/2/5 7/5/5 4/3/5
f 5/14/6 1/12/6 8/4/6
