# Blender v2.72 (sub 0) OBJ File: 'geometricTreesPackLight.blend'
# www.blender.org
o treeTrunk_01_GEO.001_Circle.009
v 0.000000 6.384681 -0.029431
v 0.000001 3.257845 -4.404977
v -2.381302 3.257845 -4.926641
v -3.458169 3.257844 -2.739610
v -5.350740 3.257843 -1.203085
v -4.312267 3.257844 1.002435
v -4.290960 3.257844 3.440116
v -1.919139 3.257845 4.003322
v 0.000000 3.257845 5.506534
v 1.919139 3.257846 4.003324
v 4.290962 3.257847 3.440116
v 4.312268 3.257847 1.002435
v 5.350743 3.257847 -1.203085
v 3.458173 3.257846 -2.739608
v 2.381308 3.257846 -4.926639
v -0.000001 8.563238 -0.029431
v 0.000000 5.768757 -3.660739
v -1.976267 5.768756 -4.093672
v -2.869968 5.768755 -2.278635
v -4.440631 5.768755 -1.003458
v -3.578792 5.768755 0.826924
v -3.561110 5.768755 2.849979
v -1.592713 5.768756 3.317389
v -0.000001 5.768757 4.564919
v 1.592711 5.768757 3.317391
v 3.561110 5.768758 2.849980
v 3.578793 5.768758 0.826925
v 4.440632 5.768758 -1.003457
v 2.869970 5.768758 -2.278633
v 1.976269 5.768757 -4.093671
v -0.000001 10.510235 -0.029431
v -0.000000 8.012781 -3.043088
v -1.640123 8.012781 -3.402384
v -2.381815 8.012781 -1.896067
v -3.685323 8.012780 -0.837785
v -2.970075 8.012780 0.681266
v -2.955400 8.012780 2.360219
v -1.321808 8.012781 2.748127
v -0.000001 8.012781 3.783464
v 1.321805 8.012781 2.748128
v 2.955398 8.012782 2.360219
v 2.970073 8.012782 0.681267
v 3.685322 8.012782 -0.837785
v 2.381815 8.012781 -1.896066
v 1.640124 8.012781 -3.402382
v -0.000002 12.250284 -0.029431
v -0.000001 10.018287 -2.530494
v -1.361154 10.018287 -2.828677
v -1.976691 10.018286 -1.578570
v -3.058486 10.018285 -0.700292
v -2.464894 10.018286 0.560383
v -2.452715 10.018286 1.953762
v -1.096982 10.018287 2.275691
v -0.000002 10.018287 3.134927
v 1.096979 10.018287 2.275692
v 2.452713 10.018287 1.953763
v 2.464892 10.018287 0.560384
v 3.058483 10.018287 -0.700292
v 1.976691 10.018287 -1.578569
v 1.361154 10.018287 -2.828676
v -0.527940 -0.380949 -0.029431
v -0.163141 -0.380949 0.472672
v 0.427116 -0.380949 0.280885
v 0.427116 -0.380949 -0.339748
v -0.163141 -0.380949 -0.531534
v -0.071197 12.039294 -0.029431
v -0.022002 12.039294 0.038280
v 0.057597 12.039294 0.012416
v 0.057597 12.039294 -0.071279
v -0.022002 12.039294 -0.097142
vt 0.742345 0.252831
vt 0.590362 0.173121
vt 0.661575 0.093261
vt 0.742345 0.000000
vt 0.320199 0.745214
vt 0.224259 0.669450
vt 0.320199 0.534305
vt 0.129222 0.596393
vt 0.219949 0.502693
vt 0.320199 0.282478
vt 0.116967 0.523996
vt 0.076739 0.410743
vt 0.000000 0.328717
vt 0.050087 0.219105
vt 0.057377 0.095517
vt 0.160063 0.072086
vt 0.245893 0.000000
vt 0.825099 0.929150
vt 0.758911 0.834308
vt 0.825099 0.639066
vt 0.758911 0.464799
vt 0.861629 0.441648
vt 0.861629 0.639066
vt 0.873513 0.252831
vt 0.742345 0.175396
vt 0.803768 0.111251
vt 0.873513 0.036273
vt 0.752992 0.435942
vt 0.671264 0.375810
vt 0.752992 0.252831
vt 0.590362 0.317897
vt 0.590362 0.441648
vt 0.506497 0.417611
vt 0.590362 0.232872
vt 0.421529 0.437533
vt 0.385666 0.344455
vt 0.320199 0.278080
vt 0.359344 0.186050
vt 0.362676 0.083359
vt 0.447351 0.061678
vt 0.516972 0.000000
vt 0.738103 0.921935
vt 0.680521 0.845130
vt 0.738103 0.675362
vt 0.129222 0.761862
vt 0.215010 0.745214
vt 0.215010 0.906497
vt 0.112933 0.720281
vt 0.000000 0.645808
vt 0.052854 0.594426
vt 0.112933 0.534305
vt 0.680521 0.675362
vt 0.679976 0.759390
vt 0.548196 0.764808
vt 0.680521 0.841782
vt 0.548196 0.806298
vt 0.478054 0.788333
vt 0.548196 0.633093
vt 0.408039 0.806861
vt 0.376082 0.730490
vt 0.320199 0.676969
vt 0.350491 0.599701
vt 0.350821 0.514434
vt 0.420552 0.494454
vt 0.476846 0.441648
vt 0.923497 0.252831
vt 0.873513 0.190786
vt 0.923497 0.042736
vt 0.215010 0.805604
vt 0.262135 0.745214
vt 0.262135 0.959804
vt 0.873341 0.381894
vt 0.752992 0.381894
vt 0.765181 0.322042
vt 0.778233 0.252831
vt 0.117164 0.859302
vt 0.058247 0.821689
vt 0.117164 0.720281
vt 0.000000 0.785564
vt 0.548196 0.947188
vt 0.488093 0.947188
vt 0.516584 0.806861
vt 0.373922 0.933691
vt 0.320199 0.912402
vt 0.373922 0.806861
vt 0.750057 0.441648
vt 0.741125 0.509741
vt 0.573046 0.506097
vt 0.758911 0.571349
vt 0.704905 0.614270
vt 0.669074 0.675362
vt 0.610662 0.660790
vt 0.548196 0.675362
vt 0.305423 0.924678
vt 0.262135 0.874685
vt 0.305423 0.745214
vt 0.923497 0.118467
vt 0.964355 0.069755
vt 0.964355 0.252831
vt 0.968378 0.883874
vt 0.982057 0.252831
vt 0.986322 0.252831
vt 0.905135 0.883874
vt 0.918814 0.252831
vt 0.923079 0.252831
vt 0.936756 0.883874
vt 0.950434 0.252831
vt 0.825099 0.996634
vt 0.852268 0.639066
vt 0.856503 0.639520
vt 0.905135 0.252831
vt 0.891457 0.883874
vt 0.887193 0.883874
vt 1.000000 0.883874
vt 0.954698 0.252831
vt 0.856503 1.000000
vn -0.126300 0.807100 -0.576800
vn 0.126300 0.807100 -0.576800
vn -0.527700 0.808800 -0.259800
vn -0.371600 0.807700 -0.457700
vn -0.528800 0.811400 0.249000
vn -0.586200 0.810100 0.005100
vn -0.134500 0.813100 0.566400
vn -0.359500 0.812500 0.458900
vn 0.359500 0.812500 0.458900
vn 0.134500 0.813100 0.566400
vn 0.586200 0.810100 0.005100
vn 0.528800 0.811400 0.249000
vn 0.371600 0.807700 -0.457700
vn 0.527700 0.808800 -0.259800
vn -0.132400 0.785500 -0.604500
vn 0.132400 0.785500 -0.604500
vn -0.553100 0.787300 -0.272400
vn -0.389500 0.786200 -0.479800
vn -0.554500 0.790200 0.261100
vn -0.614600 0.788800 0.005400
vn -0.141100 0.791900 0.594100
vn -0.377000 0.791300 0.481300
vn 0.377000 0.791300 0.481300
vn 0.141100 0.791900 0.594100
vn 0.614600 0.788800 0.005400
vn 0.554500 0.790200 0.261100
vn 0.389500 0.786200 -0.479800
vn 0.553100 0.787300 -0.272400
vn -0.138400 0.762600 -0.631900
vn 0.138400 0.762600 -0.631900
vn -0.578400 0.764400 -0.284800
vn -0.407200 0.763300 -0.501600
vn -0.580000 0.767500 0.273100
vn -0.642800 0.766000 0.005600
vn -0.147600 0.769400 0.621500
vn -0.394400 0.768700 0.503500
vn 0.394400 0.768700 0.503500
vn 0.147600 0.769400 0.621500
vn 0.642800 0.766000 0.005600
vn 0.580000 0.767500 0.273100
vn 0.407200 0.763300 -0.501600
vn 0.578400 0.764400 -0.284800
vn -0.144300 0.738300 -0.658900
vn 0.144300 0.738300 -0.658900
vn -0.603100 0.740300 -0.297000
vn -0.424600 0.739000 -0.523000
vn -0.605100 0.743500 0.284900
vn -0.670400 0.741900 0.005900
vn -0.154000 0.745500 0.648500
vn -0.411500 0.744800 0.525300
vn 0.411500 0.744800 0.525300
vn 0.154000 0.745500 0.648500
vn 0.670400 0.741900 0.005900
vn 0.605100 0.743500 0.284900
vn 0.424600 0.739000 -0.523000
vn 0.603100 0.740300 -0.297000
vn -0.308800 0.036700 -0.950400
vn 0.808500 0.036700 -0.587400
vn -0.308800 0.036700 0.950400
vn -0.999300 0.036700 -0.000000
vn 0.808500 0.036700 0.587400
s off
f 1/1/1 15/2/1 2/3/1
f 2/3/2 3/4/2 1/1/2
f 3/5/3 4/6/3 1/7/3
f 4/6/4 5/8/4 1/7/4
f 5/7/5 6/9/5 1/10/5
f 6/9/6 7/11/6 1/10/6
f 7/11/7 8/12/7 1/10/7
f 8/12/8 9/13/8 1/10/8
f 9/13/9 10/14/9 1/10/9
f 10/14/10 11/15/10 1/10/10
f 11/15/11 12/16/11 1/10/11
f 12/16/12 13/17/12 1/10/12
f 13/18/13 14/19/13 1/20/13
f 14/21/14 15/22/14 1/23/14
f 16/24/15 30/25/15 17/26/15
f 17/26/16 18/27/16 16/24/16
f 18/28/17 19/29/17 16/30/17
f 19/29/18 20/31/18 16/30/18
f 20/32/19 21/33/19 16/34/19
f 21/33/20 22/35/20 16/34/20
f 22/35/21 23/36/21 16/34/21
f 23/36/22 24/37/22 16/34/22
f 24/37/23 25/38/23 16/34/23
f 25/38/24 26/39/24 16/34/24
f 26/39/25 27/40/25 16/34/25
f 27/40/26 28/41/26 16/34/26
f 28/42/27 29/43/27 16/44/27
f 29/45/28 30/46/28 16/47/28
f 31/48/29 45/49/29 32/50/29
f 32/50/30 33/51/30 31/48/30
f 33/52/31 34/53/31 31/54/31
f 34/53/32 35/55/32 31/54/32
f 35/56/33 36/57/33 31/58/33
f 36/57/34 37/59/34 31/58/34
f 37/59/35 38/60/35 31/58/35
f 38/60/36 39/61/36 31/58/36
f 39/61/37 40/62/37 31/58/37
f 40/62/38 41/63/38 31/58/38
f 41/63/39 42/64/39 31/58/39
f 42/64/40 43/65/40 31/58/40
f 43/66/41 44/67/41 31/68/41
f 44/69/42 45/70/42 31/71/42
f 46/72/43 60/73/43 47/74/43
f 47/74/44 48/75/44 46/72/44
f 48/76/45 49/77/45 46/78/45
f 49/77/46 50/79/46 46/78/46
f 50/80/47 51/81/47 46/82/47
f 51/83/48 52/84/48 46/85/48
f 52/86/49 53/87/49 46/88/49
f 53/87/50 54/89/50 46/88/50
f 54/89/51 55/90/51 46/88/51
f 55/90/52 56/91/52 46/88/52
f 56/91/53 57/92/53 46/88/53
f 57/92/54 58/93/54 46/88/54
f 58/94/55 59/95/55 46/96/55
f 59/97/56 60/98/56 46/99/56
s 1
f 65/100/57 70/101/57 69/102/58
f 62/103/59 67/104/59 66/105/60
f 65/100/57 61/106/60 66/107/60
f 63/108/61 68/109/61 67/110/59
f 64/111/58 69/112/58 68/113/61
f 64/114/58 65/100/57 69/102/58
f 61/106/60 62/103/59 66/105/60
f 70/115/57 65/100/57 66/107/60
f 62/116/59 63/108/61 67/110/59
f 63/24/61 64/111/58 68/113/61
